<svg xmlns="http://www.w3.org/2000/svg" xmlns:xlink="http://www.w3.org/1999/xlink" width="175" zoomAndPan="magnify" viewBox="0 0 131.25 131.249998" height="175" preserveAspectRatio="xMidYMid meet" version="1.0"><defs><g/><clipPath id="d8af866149"><path d="M 0 0 L 130.503906 0 L 130.503906 130.503906 L 0 130.503906 Z M 0 0 " clip-rule="nonzero"/></clipPath><clipPath id="23341ec4b7"><path d="M 40.46875 47 L 59 47 L 59 79 L 40.46875 79 Z M 40.46875 47 " clip-rule="nonzero"/></clipPath><clipPath id="fc025e5205"><path d="M 58.734375 50.003906 L 79.6875 50.003906 L 79.6875 79.398438 L 58.734375 79.398438 Z M 58.734375 50.003906 " clip-rule="nonzero"/></clipPath><clipPath id="201c939359"><path d="M 55 20.484375 L 77 20.484375 L 77 34 L 55 34 Z M 55 20.484375 " clip-rule="nonzero"/></clipPath><clipPath id="cafb9a6e33"><path d="M 80.359375 31.097656 L 89.664062 31.097656 L 89.664062 78.742188 L 80.359375 78.742188 Z M 80.359375 31.097656 " clip-rule="nonzero"/></clipPath></defs><g clip-path="url(#d8af866149)"><path fill="#ffffff" d="M 0 0 L 130.503906 0 L 130.503906 130.503906 L 0 130.503906 Z M 0 0 " fill-opacity="1" fill-rule="nonzero"/><path fill="#ffffff" d="M 0 0 L 130.503906 0 L 130.503906 130.503906 L 0 130.503906 Z M 0 0 " fill-opacity="1" fill-rule="nonzero"/></g><path fill="#f14624" d="M 82.746094 30.675781 L 69.765625 33.265625 L 80.070312 65.78125 Z M 82.746094 30.675781 " fill-opacity="1" fill-rule="nonzero"/><path fill="#f14624" d="M 65.738281 34.070312 L 48 37.609375 C 48 37.609375 47.261719 41.511719 46.246094 46.886719 L 65.738281 34.070312 " fill-opacity="1" fill-rule="nonzero"/><g clip-path="url(#23341ec4b7)"><path fill="#f14624" d="M 45.386719 51.429688 C 43.222656 62.921875 40.496094 77.46875 40.496094 77.917969 C 40.496094 78.171875 44.960938 78.421875 50.847656 78.648438 C 57.960938 66.417969 65.675781 36.894531 45.386719 51.429688 " fill-opacity="1" fill-rule="nonzero"/></g><g clip-path="url(#fc025e5205)"><path fill="#f14624" d="M 58.757812 78.910156 C 68.714844 79.203125 79.03125 79.402344 79.03125 79.402344 L 79.660156 71.113281 C 71.382812 40.746094 58.210938 43.058594 58.757812 78.910156 " fill-opacity="1" fill-rule="nonzero"/></g><g clip-path="url(#201c939359)"><path fill="#231f20" d="M 56.960938 33.035156 L 55.492188 32.3125 C 55.730469 31.828125 61.363281 20.488281 67.980469 20.679688 C 71.253906 20.777344 74.085938 23.617188 76.402344 29.121094 L 74.894531 29.757812 C 72.851562 24.898438 70.507812 22.394531 67.933594 22.320312 C 63.304688 22.183594 58.441406 30.007812 56.960938 33.035156 " fill-opacity="1" fill-rule="nonzero"/></g><g clip-path="url(#cafb9a6e33)"><path fill="#24265d" d="M 84.0625 31.171875 L 80.441406 78.71875 L 89.664062 71.617188 Z M 84.0625 31.171875 " fill-opacity="1" fill-rule="nonzero"/></g><g fill="#000000" fill-opacity="1"><g transform="translate(32.643137, 100.261112)"><g><path d="M 5.6875 -9.933594 C 5.6875 -10.058594 5.636719 -10.136719 5.484375 -10.136719 L 0.824219 -10.136719 C 0.710938 -10.136719 0.632812 -10.058594 0.632812 -9.933594 L 0.632812 -0.203125 C 0.632812 -0.0742188 0.710938 0 0.824219 0 L 5.484375 0 C 5.636719 0 5.6875 -0.0742188 5.6875 -0.203125 L 5.6875 -1.46875 C 5.6875 -1.609375 5.636719 -1.671875 5.484375 -1.671875 L 2.316406 -1.671875 L 2.316406 -4.230469 L 4.738281 -4.230469 C 4.863281 -4.230469 4.941406 -4.308594 4.941406 -4.445312 L 4.941406 -5.699219 C 4.941406 -5.839844 4.863281 -5.917969 4.738281 -5.917969 L 2.316406 -5.917969 L 2.316406 -8.449219 L 5.484375 -8.449219 C 5.636719 -8.449219 5.6875 -8.539062 5.6875 -8.664062 Z M 5.6875 -9.933594 "/></g></g></g><g fill="#000000" fill-opacity="1"><g transform="translate(38.964267, 100.261112)"><g><path d="M 0.632812 -3.976562 C 0.632812 -3.8125 0.722656 -3.722656 0.886719 -3.722656 L 2.886719 -3.722656 C 3.054688 -3.722656 3.140625 -3.8125 3.140625 -3.976562 L 3.140625 -5.144531 C 3.140625 -5.308594 3.054688 -5.398438 2.886719 -5.398438 L 0.886719 -5.398438 C 0.722656 -5.398438 0.632812 -5.308594 0.632812 -5.144531 Z M 0.632812 -3.976562 "/></g></g></g><g fill="#000000" fill-opacity="1"><g transform="translate(42.739212, 100.261112)"><g><path d="M 5.714844 -8.3125 C 5.714844 -9.5 5.066406 -10.136719 3.890625 -10.136719 L 2.46875 -10.136719 C 1.28125 -10.136719 0.632812 -9.5 0.632812 -8.3125 L 0.632812 -1.824219 C 0.632812 -0.632812 1.28125 0 2.46875 0 L 3.890625 0 C 5.066406 0 5.714844 -0.632812 5.714844 -1.824219 L 5.714844 -3.191406 C 5.714844 -3.320312 5.636719 -3.394531 5.511719 -3.394531 L 4.242188 -3.394531 C 4.105469 -3.394531 4.042969 -3.320312 4.042969 -3.191406 L 4.042969 -2.179688 C 4.042969 -1.835938 3.863281 -1.671875 3.535156 -1.671875 L 2.875 -1.671875 C 2.546875 -1.671875 2.367188 -1.835938 2.367188 -2.179688 L 2.367188 -7.957031 C 2.367188 -8.285156 2.535156 -8.460938 2.875 -8.460938 L 3.535156 -8.460938 C 3.863281 -8.460938 4.042969 -8.285156 4.042969 -7.957031 L 4.042969 -6.941406 C 4.042969 -6.816406 4.105469 -6.738281 4.242188 -6.738281 L 5.511719 -6.738281 C 5.636719 -6.738281 5.714844 -6.816406 5.714844 -6.941406 Z M 5.714844 -8.3125 "/></g></g></g><g fill="#000000" fill-opacity="1"><g transform="translate(49.085679, 100.261112)"><g><path d="M 0.632812 -1.824219 C 0.632812 -0.632812 1.265625 0 2.457031 0 L 3.875 0 C 5.066406 0 5.699219 -0.632812 5.699219 -1.824219 L 5.699219 -8.3125 C 5.699219 -9.5 5.066406 -10.136719 3.875 -10.136719 L 2.457031 -10.136719 C 1.265625 -10.136719 0.632812 -9.5 0.632812 -8.3125 Z M 2.824219 -1.632812 C 2.496094 -1.632812 2.316406 -1.800781 2.316406 -2.140625 L 2.316406 -7.992188 C 2.316406 -8.324219 2.496094 -8.5 2.824219 -8.5 L 3.558594 -8.5 C 3.890625 -8.5 4.066406 -8.324219 4.066406 -7.992188 L 4.066406 -2.140625 C 4.066406 -1.800781 3.890625 -1.632812 3.558594 -1.632812 Z M 2.824219 -1.632812 "/></g></g></g><g fill="#000000" fill-opacity="1"><g transform="translate(55.419479, 100.261112)"><g><path d="M 5.929688 -10.136719 C 5.777344 -10.136719 5.6875 -10.058594 5.648438 -9.90625 L 4.242188 -3.597656 L 2.835938 -9.90625 C 2.800781 -10.058594 2.710938 -10.136719 2.558594 -10.136719 L 0.886719 -10.136719 C 0.722656 -10.136719 0.632812 -10.046875 0.632812 -9.882812 L 0.632812 -0.253906 C 0.632812 -0.0898438 0.722656 0 0.886719 0 L 2.050781 0 C 2.21875 0 2.304688 -0.0898438 2.304688 -0.253906 L 2.304688 -5.953125 L 2.394531 -5.953125 L 3.648438 -0.226562 C 3.6875 -0.0742188 3.773438 0 3.925781 0 L 4.546875 0 C 4.699219 0 4.789062 -0.0742188 4.828125 -0.226562 L 6.082031 -5.953125 L 6.167969 -5.953125 L 6.167969 -0.253906 C 6.167969 -0.0898438 6.257812 0 6.421875 0 L 7.601562 0 C 7.765625 0 7.855469 -0.0898438 7.855469 -0.253906 L 7.855469 -9.882812 C 7.855469 -10.046875 7.765625 -10.136719 7.601562 -10.136719 Z M 5.929688 -10.136719 "/></g></g></g><g fill="#000000" fill-opacity="1"><g transform="translate(63.906769, 100.261112)"><g><path d="M 5.929688 -10.136719 C 5.777344 -10.136719 5.6875 -10.058594 5.648438 -9.90625 L 4.242188 -3.597656 L 2.835938 -9.90625 C 2.800781 -10.058594 2.710938 -10.136719 2.558594 -10.136719 L 0.886719 -10.136719 C 0.722656 -10.136719 0.632812 -10.046875 0.632812 -9.882812 L 0.632812 -0.253906 C 0.632812 -0.0898438 0.722656 0 0.886719 0 L 2.050781 0 C 2.21875 0 2.304688 -0.0898438 2.304688 -0.253906 L 2.304688 -5.953125 L 2.394531 -5.953125 L 3.648438 -0.226562 C 3.6875 -0.0742188 3.773438 0 3.925781 0 L 4.546875 0 C 4.699219 0 4.789062 -0.0742188 4.828125 -0.226562 L 6.082031 -5.953125 L 6.167969 -5.953125 L 6.167969 -0.253906 C 6.167969 -0.0898438 6.257812 0 6.421875 0 L 7.601562 0 C 7.765625 0 7.855469 -0.0898438 7.855469 -0.253906 L 7.855469 -9.882812 C 7.855469 -10.046875 7.765625 -10.136719 7.601562 -10.136719 Z M 5.929688 -10.136719 "/></g></g></g><g fill="#000000" fill-opacity="1"><g transform="translate(72.39406, 100.261112)"><g><path d="M 5.6875 -9.933594 C 5.6875 -10.058594 5.636719 -10.136719 5.484375 -10.136719 L 0.824219 -10.136719 C 0.710938 -10.136719 0.632812 -10.058594 0.632812 -9.933594 L 0.632812 -0.203125 C 0.632812 -0.0742188 0.710938 0 0.824219 0 L 5.484375 0 C 5.636719 0 5.6875 -0.0742188 5.6875 -0.203125 L 5.6875 -1.46875 C 5.6875 -1.609375 5.636719 -1.671875 5.484375 -1.671875 L 2.316406 -1.671875 L 2.316406 -4.230469 L 4.738281 -4.230469 C 4.863281 -4.230469 4.941406 -4.308594 4.941406 -4.445312 L 4.941406 -5.699219 C 4.941406 -5.839844 4.863281 -5.917969 4.738281 -5.917969 L 2.316406 -5.917969 L 2.316406 -8.449219 L 5.484375 -8.449219 C 5.636719 -8.449219 5.6875 -8.539062 5.6875 -8.664062 Z M 5.6875 -9.933594 "/></g></g></g><g fill="#000000" fill-opacity="1"><g transform="translate(78.715191, 100.261112)"><g><path d="M 5.839844 -8.3125 C 5.839844 -9.5 5.207031 -10.136719 4.015625 -10.136719 L 0.835938 -10.136719 C 0.710938 -10.136719 0.632812 -10.058594 0.632812 -9.933594 L 0.632812 -0.203125 C 0.632812 -0.0742188 0.710938 0 0.835938 0 L 2.152344 0 C 2.28125 0 2.355469 -0.0742188 2.355469 -0.203125 L 2.355469 -3.394531 L 3.230469 -3.394531 L 4.078125 -0.175781 C 4.105469 -0.0625 4.167969 0 4.292969 0 L 5.613281 0 C 5.75 0 5.828125 -0.0742188 5.789062 -0.226562 L 4.914062 -3.546875 C 5.523438 -3.8125 5.839844 -4.371094 5.839844 -5.21875 Z M 2.355469 -5.066406 L 2.355469 -8.460938 L 3.609375 -8.460938 C 3.941406 -8.460938 4.117188 -8.285156 4.117188 -7.957031 L 4.117188 -5.574219 C 4.117188 -5.246094 3.941406 -5.066406 3.609375 -5.066406 Z M 2.355469 -5.066406 "/></g></g></g><g fill="#000000" fill-opacity="1"><g transform="translate(85.188334, 100.261112)"><g><path d="M 5.714844 -8.3125 C 5.714844 -9.5 5.066406 -10.136719 3.890625 -10.136719 L 2.46875 -10.136719 C 1.28125 -10.136719 0.632812 -9.5 0.632812 -8.3125 L 0.632812 -1.824219 C 0.632812 -0.632812 1.28125 0 2.46875 0 L 3.890625 0 C 5.066406 0 5.714844 -0.632812 5.714844 -1.824219 L 5.714844 -3.191406 C 5.714844 -3.320312 5.636719 -3.394531 5.511719 -3.394531 L 4.242188 -3.394531 C 4.105469 -3.394531 4.042969 -3.320312 4.042969 -3.191406 L 4.042969 -2.179688 C 4.042969 -1.835938 3.863281 -1.671875 3.535156 -1.671875 L 2.875 -1.671875 C 2.546875 -1.671875 2.367188 -1.835938 2.367188 -2.179688 L 2.367188 -7.957031 C 2.367188 -8.285156 2.535156 -8.460938 2.875 -8.460938 L 3.535156 -8.460938 C 3.863281 -8.460938 4.042969 -8.285156 4.042969 -7.957031 L 4.042969 -6.941406 C 4.042969 -6.816406 4.105469 -6.738281 4.242188 -6.738281 L 5.511719 -6.738281 C 5.636719 -6.738281 5.714844 -6.816406 5.714844 -6.941406 Z M 5.714844 -8.3125 "/></g></g></g><g fill="#000000" fill-opacity="1"><g transform="translate(91.534801, 100.261112)"><g><path d="M 5.6875 -9.933594 C 5.6875 -10.058594 5.636719 -10.136719 5.484375 -10.136719 L 0.824219 -10.136719 C 0.710938 -10.136719 0.632812 -10.058594 0.632812 -9.933594 L 0.632812 -0.203125 C 0.632812 -0.0742188 0.710938 0 0.824219 0 L 5.484375 0 C 5.636719 0 5.6875 -0.0742188 5.6875 -0.203125 L 5.6875 -1.46875 C 5.6875 -1.609375 5.636719 -1.671875 5.484375 -1.671875 L 2.316406 -1.671875 L 2.316406 -4.230469 L 4.738281 -4.230469 C 4.863281 -4.230469 4.941406 -4.308594 4.941406 -4.445312 L 4.941406 -5.699219 C 4.941406 -5.839844 4.863281 -5.917969 4.738281 -5.917969 L 2.316406 -5.917969 L 2.316406 -8.449219 L 5.484375 -8.449219 C 5.636719 -8.449219 5.6875 -8.539062 5.6875 -8.664062 Z M 5.6875 -9.933594 "/></g></g></g><g fill="#000000" fill-opacity="1"><g transform="translate(38.243863, 107.928449)"><g><path d="M 3.046875 0 L 2.5625 0 L 2.5625 -2.078125 L 0.640625 -2.078125 L 0.640625 0 L 0.171875 0 L 0.171875 -4.5 L 0.640625 -4.5 L 0.640625 -2.484375 L 2.5625 -2.484375 L 2.5625 -4.5 L 3.046875 -4.5 Z M 3.046875 0 "/></g></g></g><g fill="#000000" fill-opacity="1"><g transform="translate(42.101513, 107.928449)"><g><path d="M 3.4375 0 L 2.921875 0 L 2.5 -1.28125 L 0.71875 -1.28125 L 0.296875 0 L -0.203125 0 L 1.296875 -4.5 L 1.9375 -4.5 Z M 2.359375 -1.703125 L 1.609375 -4.03125 L 0.859375 -1.703125 Z M 2.359375 -1.703125 "/></g></g></g><g fill="#000000" fill-opacity="1"><g transform="translate(45.959162, 107.928449)"><g><path d="M 3.203125 -3.21875 C 3.203125 -2.78125 3.066406 -2.453125 2.796875 -2.234375 C 2.523438 -2.023438 2.144531 -1.921875 1.65625 -1.921875 L 0.640625 -1.921875 L 0.640625 0 L 0.171875 0 L 0.171875 -4.5 L 1.65625 -4.5 C 2.144531 -4.5 2.523438 -4.390625 2.796875 -4.171875 C 3.066406 -3.960938 3.203125 -3.644531 3.203125 -3.21875 Z M 2.734375 -3.21875 C 2.734375 -3.519531 2.632812 -3.738281 2.4375 -3.875 C 2.238281 -4.019531 1.976562 -4.09375 1.65625 -4.09375 L 0.640625 -4.09375 L 0.640625 -2.328125 L 1.65625 -2.328125 C 1.976562 -2.328125 2.238281 -2.394531 2.4375 -2.53125 C 2.632812 -2.675781 2.734375 -2.90625 2.734375 -3.21875 Z M 2.734375 -3.21875 "/></g></g></g><g fill="#000000" fill-opacity="1"><g transform="translate(49.816812, 107.928449)"><g><path d="M 3.203125 -3.21875 C 3.203125 -2.78125 3.066406 -2.453125 2.796875 -2.234375 C 2.523438 -2.023438 2.144531 -1.921875 1.65625 -1.921875 L 0.640625 -1.921875 L 0.640625 0 L 0.171875 0 L 0.171875 -4.5 L 1.65625 -4.5 C 2.144531 -4.5 2.523438 -4.390625 2.796875 -4.171875 C 3.066406 -3.960938 3.203125 -3.644531 3.203125 -3.21875 Z M 2.734375 -3.21875 C 2.734375 -3.519531 2.632812 -3.738281 2.4375 -3.875 C 2.238281 -4.019531 1.976562 -4.09375 1.65625 -4.09375 L 0.640625 -4.09375 L 0.640625 -2.328125 L 1.65625 -2.328125 C 1.976562 -2.328125 2.238281 -2.394531 2.4375 -2.53125 C 2.632812 -2.675781 2.734375 -2.90625 2.734375 -3.21875 Z M 2.734375 -3.21875 "/></g></g></g><g fill="#000000" fill-opacity="1"><g transform="translate(53.674461, 107.928449)"><g><path d="M 3.28125 -4.09375 L 2.921875 -4.09375 L 1.84375 -1.9375 L 1.84375 -0.40625 L 2.5625 -0.40625 L 2.5625 0 L 0.640625 0 L 0.640625 -0.40625 L 1.375 -0.40625 L 1.375 -1.9375 L 0.296875 -4.09375 L -0.0625 -4.09375 L -0.0625 -4.5 L 1.203125 -4.5 L 1.203125 -4.09375 L 0.828125 -4.09375 L 1.609375 -2.40625 L 2.390625 -4.09375 L 2.015625 -4.09375 L 2.015625 -4.5 L 3.28125 -4.5 Z M 3.28125 -4.09375 "/></g></g></g><g fill="#000000" fill-opacity="1"><g transform="translate(57.532111, 107.928449)"><g/></g></g><g fill="#000000" fill-opacity="1"><g transform="translate(61.389761, 107.928449)"><g><path d="M 3.09375 -1.171875 C 3.09375 -0.984375 3.050781 -0.8125 2.96875 -0.65625 C 2.894531 -0.507812 2.789062 -0.378906 2.65625 -0.265625 C 2.53125 -0.148438 2.382812 -0.0625 2.21875 0 C 2.050781 0.0507812 1.875 0.078125 1.6875 0.078125 C 1.4375 0.078125 1.203125 0.03125 0.984375 -0.0625 C 0.773438 -0.15625 0.609375 -0.296875 0.484375 -0.484375 L 0.484375 0 L 0.09375 0 L 0.09375 -1.375 L 0.484375 -1.375 C 0.484375 -1.21875 0.519531 -1.070312 0.59375 -0.9375 C 0.664062 -0.8125 0.753906 -0.703125 0.859375 -0.609375 C 0.972656 -0.523438 1.101562 -0.457031 1.25 -0.40625 C 1.394531 -0.351562 1.539062 -0.328125 1.6875 -0.328125 C 1.820312 -0.328125 1.941406 -0.34375 2.046875 -0.375 C 2.160156 -0.414062 2.257812 -0.46875 2.34375 -0.53125 C 2.4375 -0.601562 2.503906 -0.691406 2.546875 -0.796875 C 2.597656 -0.898438 2.625 -1.015625 2.625 -1.140625 C 2.625 -1.285156 2.59375 -1.410156 2.53125 -1.515625 C 2.46875 -1.617188 2.382812 -1.707031 2.28125 -1.78125 C 2.175781 -1.851562 2.054688 -1.914062 1.921875 -1.96875 C 1.785156 -2.019531 1.648438 -2.070312 1.515625 -2.125 C 1.347656 -2.175781 1.179688 -2.234375 1.015625 -2.296875 C 0.859375 -2.367188 0.710938 -2.453125 0.578125 -2.546875 C 0.453125 -2.640625 0.347656 -2.753906 0.265625 -2.890625 C 0.179688 -3.035156 0.140625 -3.210938 0.140625 -3.421875 C 0.140625 -3.597656 0.175781 -3.757812 0.25 -3.90625 C 0.332031 -4.050781 0.4375 -4.171875 0.5625 -4.265625 C 0.695312 -4.367188 0.847656 -4.445312 1.015625 -4.5 C 1.179688 -4.550781 1.351562 -4.578125 1.53125 -4.578125 C 1.75 -4.578125 1.945312 -4.53125 2.125 -4.4375 C 2.3125 -4.351562 2.457031 -4.21875 2.5625 -4.03125 L 2.5625 -4.5 L 2.984375 -4.5 L 2.984375 -3.21875 L 2.5625 -3.21875 C 2.5625 -3.351562 2.535156 -3.476562 2.484375 -3.59375 C 2.429688 -3.707031 2.351562 -3.804688 2.25 -3.890625 C 2.15625 -3.984375 2.046875 -4.050781 1.921875 -4.09375 C 1.796875 -4.144531 1.664062 -4.171875 1.53125 -4.171875 C 1.40625 -4.171875 1.285156 -4.15625 1.171875 -4.125 C 1.066406 -4.101562 0.972656 -4.0625 0.890625 -4 C 0.804688 -3.9375 0.738281 -3.859375 0.6875 -3.765625 C 0.644531 -3.671875 0.625 -3.554688 0.625 -3.421875 C 0.625 -3.296875 0.648438 -3.191406 0.703125 -3.109375 C 0.765625 -3.035156 0.84375 -2.960938 0.9375 -2.890625 C 1.039062 -2.828125 1.15625 -2.769531 1.28125 -2.71875 C 1.414062 -2.675781 1.550781 -2.625 1.6875 -2.5625 C 1.851562 -2.507812 2.019531 -2.445312 2.1875 -2.375 C 2.351562 -2.300781 2.503906 -2.210938 2.640625 -2.109375 C 2.773438 -2.003906 2.882812 -1.875 2.96875 -1.71875 C 3.050781 -1.570312 3.09375 -1.390625 3.09375 -1.171875 Z M 3.09375 -1.171875 "/></g></g></g><g fill="#000000" fill-opacity="1"><g transform="translate(65.24741, 107.928449)"><g><path d="M 3.046875 0 L 2.5625 0 L 2.5625 -2.078125 L 0.640625 -2.078125 L 0.640625 0 L 0.171875 0 L 0.171875 -4.5 L 0.640625 -4.5 L 0.640625 -2.484375 L 2.5625 -2.484375 L 2.5625 -4.5 L 3.046875 -4.5 Z M 3.046875 0 "/></g></g></g><g fill="#000000" fill-opacity="1"><g transform="translate(69.10506, 107.928449)"><g><path d="M 3.328125 -2.25 C 3.328125 -1.945312 3.296875 -1.65625 3.234375 -1.375 C 3.179688 -1.09375 3.082031 -0.84375 2.9375 -0.625 C 2.800781 -0.414062 2.625 -0.242188 2.40625 -0.109375 C 2.1875 0.015625 1.921875 0.078125 1.609375 0.078125 C 1.296875 0.078125 1.03125 0.015625 0.8125 -0.109375 C 0.59375 -0.242188 0.410156 -0.414062 0.265625 -0.625 C 0.128906 -0.84375 0.0351562 -1.09375 -0.015625 -1.375 C -0.078125 -1.65625 -0.109375 -1.945312 -0.109375 -2.25 C -0.109375 -2.550781 -0.078125 -2.835938 -0.015625 -3.109375 C 0.0351562 -3.390625 0.128906 -3.640625 0.265625 -3.859375 C 0.410156 -4.078125 0.59375 -4.25 0.8125 -4.375 C 1.03125 -4.507812 1.296875 -4.578125 1.609375 -4.578125 C 1.921875 -4.578125 2.1875 -4.507812 2.40625 -4.375 C 2.625 -4.25 2.800781 -4.078125 2.9375 -3.859375 C 3.070312 -3.640625 3.171875 -3.390625 3.234375 -3.109375 C 3.296875 -2.835938 3.328125 -2.550781 3.328125 -2.25 Z M 2.859375 -2.25 C 2.859375 -2.539062 2.828125 -2.804688 2.765625 -3.046875 C 2.710938 -3.285156 2.632812 -3.488281 2.53125 -3.65625 C 2.425781 -3.820312 2.296875 -3.945312 2.140625 -4.03125 C 1.984375 -4.125 1.804688 -4.171875 1.609375 -4.171875 C 1.359375 -4.171875 1.15625 -4.113281 1 -4 C 0.84375 -3.882812 0.710938 -3.734375 0.609375 -3.546875 C 0.515625 -3.359375 0.445312 -3.148438 0.40625 -2.921875 C 0.375 -2.703125 0.359375 -2.476562 0.359375 -2.25 C 0.359375 -2.019531 0.375 -1.789062 0.40625 -1.5625 C 0.445312 -1.332031 0.515625 -1.125 0.609375 -0.9375 C 0.710938 -0.757812 0.84375 -0.613281 1 -0.5 C 1.15625 -0.382812 1.359375 -0.328125 1.609375 -0.328125 C 1.847656 -0.328125 2.046875 -0.382812 2.203125 -0.5 C 2.367188 -0.613281 2.5 -0.757812 2.59375 -0.9375 C 2.695312 -1.125 2.765625 -1.332031 2.796875 -1.5625 C 2.835938 -1.789062 2.859375 -2.019531 2.859375 -2.25 Z M 2.859375 -2.25 "/></g></g></g><g fill="#000000" fill-opacity="1"><g transform="translate(72.962709, 107.928449)"><g><path d="M 3.203125 -3.21875 C 3.203125 -2.78125 3.066406 -2.453125 2.796875 -2.234375 C 2.523438 -2.023438 2.144531 -1.921875 1.65625 -1.921875 L 0.640625 -1.921875 L 0.640625 0 L 0.171875 0 L 0.171875 -4.5 L 1.65625 -4.5 C 2.144531 -4.5 2.523438 -4.390625 2.796875 -4.171875 C 3.066406 -3.960938 3.203125 -3.644531 3.203125 -3.21875 Z M 2.734375 -3.21875 C 2.734375 -3.519531 2.632812 -3.738281 2.4375 -3.875 C 2.238281 -4.019531 1.976562 -4.09375 1.65625 -4.09375 L 0.640625 -4.09375 L 0.640625 -2.328125 L 1.65625 -2.328125 C 1.976562 -2.328125 2.238281 -2.394531 2.4375 -2.53125 C 2.632812 -2.675781 2.734375 -2.90625 2.734375 -3.21875 Z M 2.734375 -3.21875 "/></g></g></g><g fill="#000000" fill-opacity="1"><g transform="translate(76.820359, 107.928449)"><g><path d="M 3.203125 -3.21875 C 3.203125 -2.78125 3.066406 -2.453125 2.796875 -2.234375 C 2.523438 -2.023438 2.144531 -1.921875 1.65625 -1.921875 L 0.640625 -1.921875 L 0.640625 0 L 0.171875 0 L 0.171875 -4.5 L 1.65625 -4.5 C 2.144531 -4.5 2.523438 -4.390625 2.796875 -4.171875 C 3.066406 -3.960938 3.203125 -3.644531 3.203125 -3.21875 Z M 2.734375 -3.21875 C 2.734375 -3.519531 2.632812 -3.738281 2.4375 -3.875 C 2.238281 -4.019531 1.976562 -4.09375 1.65625 -4.09375 L 0.640625 -4.09375 L 0.640625 -2.328125 L 1.65625 -2.328125 C 1.976562 -2.328125 2.238281 -2.394531 2.4375 -2.53125 C 2.632812 -2.675781 2.734375 -2.90625 2.734375 -3.21875 Z M 2.734375 -3.21875 "/></g></g></g><g fill="#000000" fill-opacity="1"><g transform="translate(80.678009, 107.928449)"><g><path d="M 2.5625 0 L 0.640625 0 L 0.640625 -0.40625 L 1.375 -0.40625 L 1.375 -4.09375 L 0.640625 -4.09375 L 0.640625 -4.5 L 2.5625 -4.5 L 2.5625 -4.09375 L 1.84375 -4.09375 L 1.84375 -0.40625 L 2.5625 -0.40625 Z M 2.5625 0 "/></g></g></g><g fill="#000000" fill-opacity="1"><g transform="translate(84.535658, 107.928449)"><g><path d="M 3.046875 0 L 2.453125 0 L 0.640625 -3.8125 L 0.640625 0 L 0.171875 0 L 0.171875 -4.5 L 0.828125 -4.5 L 2.5625 -0.875 L 2.5625 -4.5 L 3.046875 -4.5 Z M 3.046875 0 "/></g></g></g><g fill="#000000" fill-opacity="1"><g transform="translate(88.393308, 107.928449)"><g><path d="M 3.390625 -2.234375 C 3.390625 -1.929688 3.359375 -1.640625 3.296875 -1.359375 C 3.234375 -1.078125 3.128906 -0.828125 2.984375 -0.609375 C 2.847656 -0.398438 2.671875 -0.234375 2.453125 -0.109375 C 2.234375 0.015625 1.96875 0.078125 1.65625 0.078125 C 1.34375 0.078125 1.078125 0.015625 0.859375 -0.109375 C 0.640625 -0.242188 0.457031 -0.414062 0.3125 -0.625 C 0.175781 -0.84375 0.078125 -1.09375 0.015625 -1.375 C -0.0351562 -1.65625 -0.0625 -1.945312 -0.0625 -2.25 C -0.0625 -2.550781 -0.0351562 -2.835938 0.015625 -3.109375 C 0.078125 -3.390625 0.175781 -3.640625 0.3125 -3.859375 C 0.457031 -4.078125 0.640625 -4.25 0.859375 -4.375 C 1.078125 -4.507812 1.34375 -4.578125 1.65625 -4.578125 C 1.9375 -4.578125 2.175781 -4.523438 2.375 -4.421875 C 2.570312 -4.328125 2.71875 -4.175781 2.8125 -3.96875 L 2.8125 -4.5 L 3.21875 -4.5 L 3.21875 -3.03125 L 2.8125 -3.03125 C 2.8125 -3.1875 2.78125 -3.332031 2.71875 -3.46875 C 2.65625 -3.613281 2.570312 -3.738281 2.46875 -3.84375 C 2.363281 -3.945312 2.238281 -4.023438 2.09375 -4.078125 C 1.957031 -4.140625 1.8125 -4.171875 1.65625 -4.171875 C 1.414062 -4.171875 1.210938 -4.113281 1.046875 -4 C 0.890625 -3.882812 0.765625 -3.734375 0.671875 -3.546875 C 0.578125 -3.359375 0.507812 -3.148438 0.46875 -2.921875 C 0.425781 -2.703125 0.40625 -2.476562 0.40625 -2.25 C 0.40625 -2.019531 0.425781 -1.789062 0.46875 -1.5625 C 0.507812 -1.332031 0.578125 -1.125 0.671875 -0.9375 C 0.765625 -0.757812 0.890625 -0.613281 1.046875 -0.5 C 1.210938 -0.382812 1.414062 -0.328125 1.65625 -0.328125 C 2.019531 -0.328125 2.304688 -0.46875 2.515625 -0.75 C 2.722656 -1.03125 2.847656 -1.421875 2.890625 -1.921875 L 1.890625 -1.921875 L 1.890625 -2.328125 L 3.390625 -2.328125 Z M 3.390625 -2.234375 "/></g></g></g></svg>